<?xml version="1.0" encoding="UTF-8"?>
<svg version="1.1" viewBox="0 0 128 128" xml:space="preserve" xmlns="http://www.w3.org/2000/svg"><defs><linearGradient id="linearGradient8" x1="63.992" x2="63.992" y1="-6.3239" y2="39.79" gradientUnits="userSpaceOnUse"><stop stop-color="#c0bfbc" offset=".25"/><stop stop-color="#f6f5f4" offset=".5"/><stop stop-color="#c0bfbc" offset=".75"/></linearGradient><linearGradient id="linearGradient11" x1="48.949" x2="79.051" y1="81.891" y2="51.789" gradientUnits="userSpaceOnUse"><stop stop-color="#9141ac" offset="0"/><stop stop-color="#613583" offset="1"/></linearGradient></defs><path d="m20.17 117.38v-93.84c0-2.51 2.03-4.54 4.54-4.54h78.58c2.51 0 4.54 2.03 4.54 4.54v93.84c0 2.51-2.03 4.54-4.54 4.54h-78.58c-2.51 0-4.54-2.03-4.54-4.54" fill="#986a44"/><path d="m20.17 114.38v-93.84c0-2.51 2.03-4.54 4.54-4.54h78.58c2.51 0 4.54 2.03 4.54 4.54v93.84c0 2.51-2.03 4.54-4.54 4.54h-78.58c-2.51 0-4.54-2.03-4.54-4.54" fill="#b5835a"/><path d="m29.45 109.66v-84.64c0-1.29 1.05-2.34 2.34-2.34h64.42c1.29 0 2.34 1.05 2.34 2.34v84.64c0 1.29-1.05 2.34-2.34 2.34h-64.42c-1.29 0-2.34-1.04-2.34-2.34" fill="#deddda"/><path d="m29.45 108.69v-83.692c0-1.2756 1.05-2.3138 2.34-2.3138h64.42c1.29 0 2.34 1.0382 2.34 2.3138v83.692c0 1.2756-1.05 2.3138-2.34 2.3138h-64.42c-1.29 0-2.34-1.0284-2.34-2.3138" fill="#f6f5f4" stroke-width=".99439"/><path d="m50.25 16.99c1.6162-3e-3 3.5589 0.23 4.621-1.29 1.5065-1.8646 0.69845-4.5206 1.9992-6.4942 1.928-3.827 7.0988-5.444 10.853-3.3685 2.6861 1.3506 4.3395 4.256 4.4119 7.2264 0.08437 2.0734 1.7552 4.1865 3.9911 3.9262h1.6239c4.702-0.11234 9.0107 3.8776 9.2542 8.5753-0.07058 1.478 0.45204 3.3089-0.85939 4.3991-1.2013 0.91176-2.7843 0.43647-4.1794 0.55556-12.938-0.0084-25.876 0.01675-38.814-0.01257-1.5603-0.10862-2.4012-1.7325-2.1819-3.1551-0.23134-3.0795 0.91603-6.288 3.3718-8.2407 1.6444-1.3668 3.7698-2.1301 5.9082-2.1216m13.75-7.24c-2.3564-0.18811-4.0011 2.4884-3.1406 4.5801 0.83879 2.814 5.4424 2.814 6.2812 0 0.82582-2.1373-0.73064-4.7289-3.1406-4.5801z" fill="#9a9996"/><path d="m50.25 15.99c1.6162-3e-3 3.5589 0.23 4.621-1.29 1.5065-1.8646 0.69845-4.5206 1.9992-6.4942 1.928-3.827 7.0988-5.444 10.853-3.3685 2.6861 1.3506 4.3395 4.256 4.4119 7.2264 0.08437 2.0734 1.7552 4.1865 3.9911 3.9262h1.6239c4.702-0.11234 9.0107 3.8776 9.2542 8.5753-0.07058 1.478 0.45204 3.3089-0.85939 4.3991-1.2013 0.91176-2.7843 0.43647-4.1794 0.55556-12.938-0.0084-25.876 0.01675-38.814-0.01257-1.5603-0.10862-2.4012-1.7325-2.1819-3.1551-0.23134-3.0795 0.91603-6.288 3.3718-8.2407 1.6444-1.3668 3.7698-2.1301 5.9082-2.1216m13.75-7.24c-2.3564-0.18811-4.0011 2.4884-3.1406 4.5801 0.83879 2.814 5.4424 2.814 6.2812 0 0.82582-2.1373-0.73064-4.7289-3.1406-4.5801z" fill="url(#linearGradient8)"/><path d="m45.084 57.704c-1.559 2.4112-2.3696 5.55-2.3696 9.1356s0.81067 6.7244 2.3696 9.1356c1.5486 2.4216 4.0637 4.1677 7.7533 4.1677 3.4194 0 5.7994-1.6733 7.6494-3.7519 1.0081-1.1329 1.8604-2.7854 0.22866-4.1989-1.2472-1.0913-2.6399-0.82106-4.1365 0.59241-2.6918 2.8685-5.55 2.6087-7.0258 0.31179-0.85225-1.3095-1.5174-3.5025-1.5174-6.2567s0.66516-4.9472 1.5174-6.2567c1.0705-1.6733 3.305-3.3258 7.3688 0.68595 1.5798 1.5694 7.5143 11.183 10.144 14.634 1.8084 2.38 4.3963 4.2404 8.0859 4.2404s6.2047-1.7461 7.7637-4.1677c1.5486-2.4112 2.3696-5.55 2.3696-9.1356s-0.82106-6.7244-2.3696-9.1356c-1.559-2.4216-4.0741-4.1677-7.7637-4.1677-3.2323 0-5.498 1.5278-7.3376 3.4194-1.4447 1.4966-1.5278 3.305-0.47809 4.4067 0.98736 1.0185 2.5775 0.86264 4.0637-0.44691 2.3697-2.1098 5.1239-3.3154 7.0362-0.33258 0.85224 1.3095 1.5278 3.5025 1.5278 6.2567s-0.67556 4.9472-1.5278 6.2567c-0.85224 1.3199-1.6629 1.7253-3.1387 1.7253s-2.7022-0.67556-4.23-2.4112c-2.8581-3.3258-8.0443-12.347-10.144-14.634-1.9643-2.2553-4.3963-4.2404-8.0859-4.2404s-6.2047 1.7461-7.7533 4.1677z" fill="url(#linearGradient11)" stroke-width="2.6607"/></svg>
